<svg xmlns="http://www.w3.org/2000/svg" width="660px" height="280px" viewBox="0 0 660px 280px">
	<path fill="#fff" class="st0" d="M330,280c-25,0-48.5-6.6-68.9-18.2c2.1-1.4,4.1-3,5.9-4.8c4.6-4.6,7.7-10,9.5-15.8c16,8.5,34.2,13.3,53.5,13.3 c63.2,0,114.5-51.4,114.5-114.5S393.2,25.5,330,25.5c-30.7,0-58.7,12.2-79.2,31.9c-1.2,1.1-2.3,2.2-3.4,3.4 c-19.8,20.6-31.9,48.5-31.9,79.2c0,19.3,4.8,37.5,13.3,53.5c-5.9,1.8-11.3,5-15.8,9.5c-1.8,1.8-3.4,3.8-4.8,5.9 C196.6,188.6,190,165,190,140C190,62.8,252.8,0,330,0s140,62.8,140,140C470,217.2,407.2,280,330,280z M276,98.7 c-7,0-12.7-5.7-12.7-12.7c0-7,5.7-12.7,12.7-12.7c7,0,12.7,5.7,12.7,12.7C288.7,93,283,98.7,276,98.7z M330,101.8 c21.1,0,38.2,17.1,38.2,38.2c0,21.1-17.1,38.2-38.2,38.2c-21.1,0-38.2-17.1-38.2-38.2C291.8,118.9,308.9,101.8,330,101.8z M330,152.7c7,0,12.7-5.7,12.7-12.7c0-7-5.7-12.7-12.7-12.7c-7,0-12.7,5.7-12.7,12.7C317.3,147,323,152.7,330,152.7z M419.1,140 c0,49.2-39.9,89.1-89.1,89.1c-49.2,0-89.1-39.9-89.1-89.1c0-10.6,1.9-20.8,5.3-30.2c5.5,6.9,13.4,11.9,22.4,13.7 c-1.4,5.3-2.2,10.8-2.2,16.6c0,35.1,28.5,63.6,63.6,63.6c35.1,0,63.6-28.5,63.6-63.6c0-35.1-28.5-63.6-63.6-63.6 c-5.7,0-11.3,0.8-16.5,2.2c-1.8-9-6.7-16.9-13.7-22.4c9.4-3.4,19.6-5.3,30.2-5.3C379.2,50.9,419.1,90.8,419.1,140z M240,217.3 c3.3,0,6.5,1.2,9,3.7c5,5,5,13,0,18c-2.5,2.5-5.7,3.7-9,3.7c-3.3,0-6.5-1.2-9-3.7c-5-5-5-13,0-18C233.5,218.5,236.7,217.3,240,217.3 z M140.9,198.8h33.5v25.1h-33.5V280h-30.9v-56.1H0v-18.1L108.2,38.3h32.7V198.8z M34.9,198.8h75.2V80.3l-3.7,6.6L34.9,198.8z M626.5,198.8H660v25.1h-33.5V280h-30.9v-56.1H485.5v-18.1L593.8,38.3h32.7V198.8z M520.4,198.8h75.2V80.3l-3.7,6.6L520.4,198.8z"/>
</svg>
