<svg xmlns="http://www.w3.org/2000/svg" width="100" height="100" viewBox="0 0 100 100">
	<style type="text/css">
		.st1{fill:none;stroke:#ffffff;stroke-width:2;stroke-linecap:round;stroke-miterlimit:10;}
	</style>
	<path class="st1" d="M91.6,75.9C96.3,68.4,99,59.5,99,50C99,22.9,77.1,1,50,1S1,22.9,1,50s21.9,49,49,49c9.5,0,18.4-2.7,25.9-7.4 l21.6,7.2c0.8,0.3,1.5-0.5,1.2-1.2L91.6,75.9z"/>
	<path class="st1" d="M86,32.5c2.6,5.3,4,11.2,4,17.5c0,3-0.3,5.8-0.9,8.6 M82.5,26.7c-0.1-0.1-0.1-0.2-0.2-0.3"/>
	<path class="st1" d="M56,69.5v-26c0-0.6-0.4-1-1-1H42c-0.6,0-1,0.4-1,1v5c0,0.6,0.4,1,1,1h1c0.6,0,1,0.4,1,1v19c0,0.6-0.4,1-1,1h-1 c-0.6,0-1,0.4-1,1v5c0,0.6,0.4,1,1,1h16c0.6,0,1-0.4,1-1v-5c0-0.6-0.4-1-1-1h-1C56.4,70.5,56,70.1,56,69.5z"/>
	<circle class="st1" cx="50" cy="29" r="7"/>
</svg>
